<?xml version="1.0" encoding="utf-8"?>
<!-- Generator: Adobe Illustrator 13.0.0, SVG Export Plug-In . SVG Version: 6.00 Build 14948)  -->
<!DOCTYPE svg PUBLIC "-//W3C//DTD SVG 1.1//EN" "http://www.w3.org/Graphics/SVG/1.1/DTD/svg11.dtd">
<svg version="1.1" id="Livello_1" xmlns="http://www.w3.org/2000/svg" xmlns:xlink="http://www.w3.org/1999/xlink" x="0px" y="0px"
	 width="20px" height="20px" viewBox="0 0 20 20" enable-background="new 0 0 20 20" xml:space="preserve">
<g>
	<path fill="#777777" d="M12.729,3.212h-2.245V2.089c0-0.617-0.506-1.123-1.125-1.123H7.114c-0.618,0-1.122,0.505-1.122,1.123v1.123
		H3.745v2.246h8.984V3.212z M9.359,3.212H7.114V2.092l0.002-0.002h2.242c0,0.001,0.001,0.001,0.001,0.002V3.212z M14.975,6.582
		V3.774c0-0.309-0.252-0.562-0.561-0.562h-1.123v1.124h0.562v2.245h-3.368l-3.37,3.37v4.49H2.623V4.336h0.563V3.212H2.063
		C1.752,3.212,1.5,3.465,1.5,3.774v11.229c0,0.308,0.252,0.562,0.563,0.562h5.052v3.368h11.229V6.582H14.975z M10.484,8.17v1.781
		H8.703L10.484,8.17z M17.222,17.812H8.237v-6.739h3.371V7.704h5.614V17.812z M17.222,17.812"/>
</g>
</svg>
