<?xml version="1.0" encoding="utf-8"?>
<!-- Generator: Adobe Illustrator 13.0.0, SVG Export Plug-In . SVG Version: 6.00 Build 14948)  -->
<!DOCTYPE svg PUBLIC "-//W3C//DTD SVG 1.1//EN" "http://www.w3.org/Graphics/SVG/1.1/DTD/svg11.dtd">
<svg version="1.1" id="Livello_1" xmlns="http://www.w3.org/2000/svg" xmlns:xlink="http://www.w3.org/1999/xlink" x="0px" y="0px"
	 width="20px" height="20px" viewBox="0 0 20 20" enable-background="new 0 0 20 20" xml:space="preserve">
<g>
	<path fill="#777777" d="M15.84,5.08c-0.347-0.475-0.83-1.026-1.36-1.558c-0.532-0.531-1.087-1.015-1.558-1.362
		c-0.808-0.591-1.198-0.659-1.422-0.659H3.75c-0.689,0-1.25,0.561-1.25,1.25V16.25c0,0.689,0.561,1.249,1.25,1.249h11.5
		c0.689,0,1.25-0.56,1.25-1.249V6.501C16.5,6.276,16.432,5.886,15.84,5.08L15.84,5.08z M13.771,4.228
		c0.48,0.481,0.856,0.915,1.134,1.273h-2.406V3.095C12.859,3.373,13.292,3.749,13.771,4.228L13.771,4.228z M15.501,16.25
		c0,0.136-0.115,0.25-0.251,0.25H3.75c-0.135,0-0.25-0.114-0.25-0.25V2.751c0-0.136,0.115-0.25,0.25-0.25h7.75v3.498
		c0,0.277,0.224,0.502,0.499,0.502h3.502V16.25z M15.501,16.25"/>
</g>
</svg>
