<?xml version="1.0" encoding="utf-8"?>
<!-- Generator: Adobe Illustrator 13.0.0, SVG Export Plug-In . SVG Version: 6.00 Build 14948)  -->
<!DOCTYPE svg PUBLIC "-//W3C//DTD SVG 1.1//EN" "http://www.w3.org/Graphics/SVG/1.1/DTD/svg11.dtd">
<svg version="1.1" id="Livello_1" xmlns="http://www.w3.org/2000/svg" xmlns:xlink="http://www.w3.org/1999/xlink" x="0px" y="0px"
	 width="20px" height="20px" viewBox="0 0 20 20" enable-background="new 0 0 20 20" xml:space="preserve">
<g>
	<path fill="#777777" d="M16.902,12.723c0.794,0.795,1.236,1.709,1.328,2.744c0.091,1.035-0.195,1.885-0.859,2.549
		c-0.287,0.286-0.622,0.501-1.006,0.645c-0.385,0.144-0.785,0.215-1.201,0.215c-0.521,0-1.052-0.114-1.592-0.342
		c-0.541-0.228-1.039-0.563-1.494-1.006c-0.521-0.521-0.893-1.104-1.113-1.748c-0.222-0.645-0.287-1.267-0.195-1.865L9.5,12.625
		l-1.27,1.289c0.091,0.599,0.026,1.221-0.195,1.865c-0.222,0.645-0.593,1.228-1.113,1.748c-0.456,0.442-0.954,0.778-1.494,1.006
		c-0.541,0.228-1.071,0.342-1.592,0.342c-0.417,0-0.817-0.071-1.201-0.215c-0.384-0.144-0.72-0.358-1.006-0.645
		c-0.664-0.664-0.951-1.514-0.859-2.549c0.091-1.035,0.534-1.949,1.328-2.744c0.442-0.442,0.938-0.777,1.484-1.006
		c0.547-0.228,1.081-0.342,1.602-0.342H5.75L7,10.125l-4.98-5c-0.313-0.313-0.547-0.69-0.703-1.133
		C1.16,3.55,1.082,3.094,1.082,2.625S1.16,1.701,1.316,1.258c0.156-0.442,0.391-0.82,0.703-1.133l7.48,7.5l7.48-7.5
		c0.313,0.313,0.547,0.69,0.703,1.133c0.156,0.443,0.234,0.898,0.234,1.367S17.84,3.55,17.684,3.992
		c-0.156,0.443-0.391,0.82-0.703,1.133l-4.98,5l1.25,1.25h0.566c0.521,0,1.055,0.114,1.602,0.342
		C15.965,11.945,16.459,12.28,16.902,12.723z M6.395,15.398c0.065-0.156,0.117-0.315,0.156-0.479s0.059-0.322,0.059-0.479
		c0-0.144-0.026-0.31-0.078-0.498c-0.052-0.188-0.156-0.361-0.313-0.518s-0.329-0.26-0.518-0.313
		c-0.189-0.052-0.361-0.078-0.518-0.078s-0.313,0.02-0.469,0.059s-0.313,0.092-0.469,0.156c-0.183,0.078-0.355,0.173-0.518,0.283
		c-0.163,0.111-0.316,0.238-0.459,0.381c-0.144,0.144-0.267,0.293-0.371,0.449c-0.104,0.156-0.195,0.325-0.273,0.508
		c-0.065,0.156-0.117,0.313-0.156,0.469S2.41,15.652,2.41,15.809c0,0.144,0.026,0.31,0.078,0.498
		c0.052,0.188,0.156,0.361,0.313,0.518s0.329,0.261,0.518,0.313c0.188,0.052,0.361,0.078,0.518,0.078
		c0.143,0,0.296-0.02,0.459-0.059C4.458,17.117,4.617,17.065,4.773,17c0.182-0.078,0.352-0.173,0.508-0.283s0.306-0.237,0.449-0.381
		c0.143-0.13,0.27-0.276,0.381-0.439C6.222,15.733,6.316,15.567,6.395,15.398z M9.5,11.902c0.481,0,0.895-0.172,1.24-0.518
		c0.345-0.345,0.518-0.765,0.518-1.26c0-0.481-0.173-0.895-0.518-1.24C10.395,8.54,9.981,8.367,9.5,8.367
		c-0.482,0-0.896,0.173-1.24,0.518c-0.345,0.345-0.518,0.759-0.518,1.24c0,0.495,0.172,0.915,0.518,1.26
		C8.604,11.73,9.018,11.902,9.5,11.902z M16.199,16.824c0.156-0.156,0.26-0.329,0.313-0.518c0.052-0.188,0.078-0.354,0.078-0.498
		c0-0.156-0.02-0.313-0.059-0.469s-0.092-0.313-0.156-0.469c-0.078-0.183-0.17-0.352-0.273-0.508
		c-0.104-0.156-0.229-0.306-0.371-0.449c-0.144-0.143-0.297-0.27-0.459-0.381c-0.163-0.11-0.336-0.205-0.518-0.283
		c-0.156-0.064-0.313-0.117-0.469-0.156s-0.313-0.059-0.469-0.059s-0.329,0.026-0.518,0.078c-0.189,0.053-0.361,0.156-0.518,0.313
		s-0.261,0.329-0.313,0.518c-0.053,0.188-0.078,0.354-0.078,0.498c0,0.156,0.02,0.315,0.059,0.479s0.091,0.322,0.156,0.479
		c0.078,0.169,0.172,0.335,0.283,0.498c0.11,0.163,0.237,0.31,0.381,0.439c0.143,0.144,0.293,0.271,0.449,0.381
		s0.325,0.205,0.508,0.283c0.156,0.065,0.315,0.117,0.479,0.156c0.162,0.039,0.315,0.059,0.459,0.059
		c0.156,0,0.328-0.026,0.518-0.078C15.87,17.085,16.043,16.98,16.199,16.824z"/>
</g>
</svg>
